<?xml version="1.0" encoding="UTF-8"?>
<!-- Generator: Adobe Illustrator 18.1.1, SVG Export Plug-In . SVG Version: 6.00 Build 0)  -->
<svg version="1.1" id="Layer_1" xmlns:ev="http://www.w3.org/2001/xml-events" xmlns="http://www.w3.org/2000/svg" xmlns:xlink="http://www.w3.org/1999/xlink" x="0px" y="0px" width="32px" height="32px" viewBox="-8195 21 32 32" enable-background="new -8195 21 32 32" xml:space="preserve">
<g>
	<path fill="#81BB5F" d="M-8179,48.5c-6.341,0-11.5-5.159-11.5-11.5s5.159-11.5,11.5-11.5s11.5,5.159,11.5,11.5   S-8172.659,48.5-8179,48.5z"/>
	<path fill="#7AB459" d="M-8179,26c6.065,0,11,4.935,11,11s-4.935,11-11,11s-11-4.935-11-11S-8185.065,26-8179,26 M-8179,25   c-6.627,0-12,5.373-12,12s5.373,12,12,12s12-5.373,12-12S-8172.373,25-8179,25L-8179,25z"/>
</g>
<path fill="#FFFFFF" d="M-8174,39c-1.105,0-2-0.895-2-2s0.895-2,2-2s2,0.895,2,2S-8172.895,39-8174,39z M-8179,39  c-1.105,0-2-0.895-2-2s0.895-2,2-2s2,0.895,2,2S-8177.895,39-8179,39z M-8184,39c-1.105,0-2-0.895-2-2s0.895-2,2-2s2,0.895,2,2  S-8182.895,39-8184,39z"/>
</svg>