<?xml version="1.0" encoding="UTF-8"?>
<!-- Generator: Adobe Illustrator 18.1.1, SVG Export Plug-In . SVG Version: 6.00 Build 0)  -->
<svg version="1.1" id="Layer_1" xmlns:ev="http://www.w3.org/2001/xml-events" xmlns="http://www.w3.org/2000/svg" xmlns:xlink="http://www.w3.org/1999/xlink" x="0px" y="0px" width="32px" height="32px" viewBox="-8195 21 32 32" enable-background="new -8195 21 32 32" xml:space="preserve">
<g>
	<path fill="#E95B54" d="M-8179,48.5c-6.341,0-11.5-5.159-11.5-11.5s5.159-11.5,11.5-11.5s11.5,5.159,11.5,11.5   S-8172.659,48.5-8179,48.5z"/>
	<path fill="#E1544C" d="M-8179,26c6.065,0,11,4.935,11,11s-4.935,11-11,11s-11-4.935-11-11S-8185.065,26-8179,26 M-8179,25   c-6.627,0-12,5.373-12,12s5.373,12,12,12s12-5.373,12-12S-8172.373,25-8179,25L-8179,25z"/>
</g>
<path fill="#FFFFFF" d="M-8173.744,37.433c-0.653,0-1.866,0-3.25,0c0,1.502,0,3.952,0,5c0,0.26-0.26,0.5-0.508,0.5  c-0.775,0-2.246,0-3.007,0c-0.24,0-0.485-0.245-0.485-0.508c0-1.052,0-3.493,0-4.992c-1.393,0-2.609,0-3.25,0  c-0.381,0-0.501-0.226-0.25-0.5c1.197-1.307,4.398-4.786,5.25-5.75c0.145-0.164,0.329-0.151,0.481,0.011  c0.874,0.927,4.054,4.397,5.269,5.739C-8173.261,37.19-8173.383,37.433-8173.744,37.433z"/>
</svg>