<?xml version="1.0" encoding="UTF-8"?>
<!-- Generator: Adobe Illustrator 18.1.1, SVG Export Plug-In . SVG Version: 6.00 Build 0)  -->
<svg version="1.1" id="Layer_1" xmlns:ev="http://www.w3.org/2001/xml-events" xmlns="http://www.w3.org/2000/svg" xmlns:xlink="http://www.w3.org/1999/xlink" x="0px" y="0px" width="32px" height="32px" viewBox="-8183 9 32 32" enable-background="new -8183 9 32 32" xml:space="preserve">
<g>
	<path fill="#F4AA46" d="M-8167,36.5c-6.341,0-11.5-5.159-11.5-11.5c0-6.341,5.159-11.5,11.5-11.5c6.341,0,11.5,5.159,11.5,11.5   C-8155.5,31.341-8160.659,36.5-8167,36.5z"/>
	<path fill="#EDA23F" d="M-8167,14c6.065,0,11,4.935,11,11s-4.935,11-11,11s-11-4.935-11-11S-8173.065,14-8167,14 M-8167,13   c-6.627,0-12,5.373-12,12s5.373,12,12,12s12-5.373,12-12S-8160.373,13-8167,13L-8167,13z"/>
</g>
<path fill="#FFFFFF" d="M-8161.494,25.067c-1.215,1.342-4.395,4.812-5.269,5.739c-0.152,0.162-0.336,0.175-0.481,0.011  c-0.852-0.964-4.053-4.443-5.25-5.75c-0.251-0.274-0.131-0.5,0.25-0.5c0.641,0,1.857,0,3.25,0c0-1.499,0-3.94,0-4.992  c0-0.263,0.245-0.508,0.485-0.508c0.761,0,2.232,0,3.007,0c0.248,0,0.508,0.24,0.508,0.5c0,1.048,0,3.498,0,5  c1.384,0,2.597,0,3.25,0C-8161.383,24.567-8161.261,24.81-8161.494,25.067z"/>
</svg>